# xmcd
#
# Track frame offsets: 
#        182
#        14727
#        29620
#        47212
#        63477
#        74745
#        90355
#        105502
#        117887
#        134225
#        155960
#
# Disc length: 2299 seconds
#
# Revision: 7
# Processed by: cddbd v1.5.2PL0 Copyright (c) Steve Scherf et al.
# Submitted via: ExactAudioCopyFreeDBPlugin 1.0
#
DISCID=a808f90b
DTITLE=A Country Christmas 1999 - Various
DYEAR=1999
DGENRE=Christmas
TTITLE0=Martina McBride - I'll Be Home For Christmas
TTITLE1=George Strait - Christmas Cookies
TTITLE2=Mark Wills - New Star Shining
TTITLE3=Alecia Elliott - What Child Is This?
TTITLE4=Chely Wright - Let It Snow, Let It Snow, Let It Snow
TTITLE5=Kenney Chesney - Just Put A Ribbon In Your Hair
TTITLE6=Mindy McCready - Santa Baby
TTITLE7=Alabama - New Year's Eve 1999
TTITLE8=Rebecca Lynn Howard - The First Noel
TTITLE9=Sara Evans - O Come All Ye Faithful
TTITLE10=Reba McEntire - This Is My Prayer For You
EXTD=
EXTT0=
EXTT1=
EXTT2=
EXTT3=
EXTT4=
EXTT5=
EXTT6=
EXTT7=
EXTT8=
EXTT9=
EXTT10=
PLAYORDER=
